<svg width="16" height="16" viewBox="0 0 16 16" fill="none" xmlns="http://www.w3.org/2000/svg">
<path fill-rule="evenodd" clip-rule="evenodd" d="M13.6345 13.6338H11.262V9.92C11.262 9.03467 11.246 7.896 10.0281 7.896C8.79427 7.896 8.60581 8.86133 8.60581 9.85689V13.6338H6.23501V5.99822H8.50892V7.04178H8.54181C8.85916 6.44178 9.63253 5.80889 10.7873 5.80889C13.191 5.80889 13.6345 7.38933 13.6345 9.44622V13.6338ZM3.55931 4.95556C2.7966 4.95556 2.18145 4.33867 2.18145 3.57867C2.18145 2.81956 2.7966 2.20267 3.55931 2.20267C4.31757 2.20267 4.9345 2.81956 4.9345 3.57867C4.9345 4.33867 4.31757 4.95556 3.55931 4.95556ZM2.36991 13.6338H4.74604V5.99822H2.36991V13.6338ZM14.8159 0H1.17962C0.528918 0 0 0.516444 0 1.15378V14.8453C0 15.4827 0.528918 16 1.17962 16H14.8159C15.4684 16 16 15.4827 16 14.8453V1.15378C16 0.516444 15.4684 0 14.8159 0Z" fill="#D9D9D9"/>
</svg>
